<mxfile host="Electron" agent="Mozilla/5.0 (Windows NT 10.0; Win64; x64) AppleWebKit/537.36 (KHTML, like Gecko) draw.io/26.0.9 Chrome/128.0.6613.186 Electron/32.2.5 Safari/537.36" version="26.0.9">
  <diagram name="Página-1" id="SFmodrDmsoPpCotLX6va">
    <mxGraphModel dx="2279" dy="2576" grid="1" gridSize="10" guides="1" tooltips="1" connect="1" arrows="1" fold="1" page="1" pageScale="1" pageWidth="827" pageHeight="1169" math="0" shadow="0">
      <root>
        <mxCell id="0" />
        <mxCell id="1" parent="0" />
        <mxCell id="bQVyfLzydwQdl8sysjUC-66" value="" style="edgeStyle=orthogonalEdgeStyle;rounded=0;orthogonalLoop=1;jettySize=auto;html=1;" edge="1" parent="1" source="bQVyfLzydwQdl8sysjUC-1" target="bQVyfLzydwQdl8sysjUC-65">
          <mxGeometry relative="1" as="geometry" />
        </mxCell>
        <mxCell id="bQVyfLzydwQdl8sysjUC-1" value="Times" style="rounded=0;whiteSpace=wrap;html=1;" vertex="1" parent="1">
          <mxGeometry y="240" width="120" height="40" as="geometry" />
        </mxCell>
        <mxCell id="bQVyfLzydwQdl8sysjUC-2" value="ID&lt;span style=&quot;white-space: pre;&quot;&gt;&#x9;&lt;/span&gt;(PK)" style="text;html=1;align=center;verticalAlign=middle;resizable=0;points=[];autosize=1;strokeColor=none;fillColor=none;" vertex="1" parent="1">
          <mxGeometry x="120" y="330" width="70" height="30" as="geometry" />
        </mxCell>
        <mxCell id="bQVyfLzydwQdl8sysjUC-3" value="nome" style="text;html=1;align=center;verticalAlign=middle;resizable=0;points=[];autosize=1;strokeColor=none;fillColor=none;" vertex="1" parent="1">
          <mxGeometry x="120" y="370" width="50" height="30" as="geometry" />
        </mxCell>
        <mxCell id="bQVyfLzydwQdl8sysjUC-4" value="simbulo" style="text;html=1;align=center;verticalAlign=middle;resizable=0;points=[];autosize=1;strokeColor=none;fillColor=none;" vertex="1" parent="1">
          <mxGeometry x="120" y="410" width="60" height="30" as="geometry" />
        </mxCell>
        <mxCell id="bQVyfLzydwQdl8sysjUC-5" value="coresPredominantes" style="text;html=1;align=center;verticalAlign=middle;resizable=0;points=[];autosize=1;strokeColor=none;fillColor=none;" vertex="1" parent="1">
          <mxGeometry x="120" y="450" width="130" height="30" as="geometry" />
        </mxCell>
        <mxCell id="bQVyfLzydwQdl8sysjUC-6" style="edgeStyle=orthogonalEdgeStyle;rounded=0;orthogonalLoop=1;jettySize=auto;html=1;entryX=0.005;entryY=0.451;entryDx=0;entryDy=0;entryPerimeter=0;" edge="1" parent="1" source="bQVyfLzydwQdl8sysjUC-1" target="bQVyfLzydwQdl8sysjUC-2">
          <mxGeometry relative="1" as="geometry" />
        </mxCell>
        <mxCell id="bQVyfLzydwQdl8sysjUC-7" style="edgeStyle=orthogonalEdgeStyle;rounded=0;orthogonalLoop=1;jettySize=auto;html=1;entryX=0.008;entryY=0.359;entryDx=0;entryDy=0;entryPerimeter=0;" edge="1" parent="1" source="bQVyfLzydwQdl8sysjUC-1" target="bQVyfLzydwQdl8sysjUC-3">
          <mxGeometry relative="1" as="geometry" />
        </mxCell>
        <mxCell id="bQVyfLzydwQdl8sysjUC-8" style="edgeStyle=orthogonalEdgeStyle;rounded=0;orthogonalLoop=1;jettySize=auto;html=1;entryX=0.006;entryY=0.474;entryDx=0;entryDy=0;entryPerimeter=0;" edge="1" parent="1" source="bQVyfLzydwQdl8sysjUC-1" target="bQVyfLzydwQdl8sysjUC-4">
          <mxGeometry relative="1" as="geometry" />
        </mxCell>
        <mxCell id="bQVyfLzydwQdl8sysjUC-9" style="edgeStyle=orthogonalEdgeStyle;rounded=0;orthogonalLoop=1;jettySize=auto;html=1;entryX=-0.002;entryY=0.632;entryDx=0;entryDy=0;entryPerimeter=0;" edge="1" parent="1" source="bQVyfLzydwQdl8sysjUC-1" target="bQVyfLzydwQdl8sysjUC-5">
          <mxGeometry relative="1" as="geometry" />
        </mxCell>
        <mxCell id="bQVyfLzydwQdl8sysjUC-83" style="edgeStyle=orthogonalEdgeStyle;rounded=0;orthogonalLoop=1;jettySize=auto;html=1;entryX=1;entryY=0.5;entryDx=0;entryDy=0;" edge="1" parent="1" source="bQVyfLzydwQdl8sysjUC-10" target="bQVyfLzydwQdl8sysjUC-1">
          <mxGeometry relative="1" as="geometry" />
        </mxCell>
        <mxCell id="bQVyfLzydwQdl8sysjUC-10" value="Jogadores" style="whiteSpace=wrap;html=1;" vertex="1" parent="1">
          <mxGeometry x="440" y="280" width="120" height="40" as="geometry" />
        </mxCell>
        <mxCell id="bQVyfLzydwQdl8sysjUC-16" value="ID&lt;span style=&quot;white-space: pre;&quot;&gt;&#x9;&lt;/span&gt;(PK)" style="text;html=1;align=center;verticalAlign=middle;resizable=0;points=[];autosize=1;strokeColor=none;fillColor=none;" vertex="1" parent="1">
          <mxGeometry x="520" y="350" width="70" height="30" as="geometry" />
        </mxCell>
        <mxCell id="bQVyfLzydwQdl8sysjUC-21" style="edgeStyle=orthogonalEdgeStyle;rounded=0;orthogonalLoop=1;jettySize=auto;html=1;entryX=-0.014;entryY=0.566;entryDx=0;entryDy=0;entryPerimeter=0;" edge="1" parent="1" source="bQVyfLzydwQdl8sysjUC-10" target="bQVyfLzydwQdl8sysjUC-16">
          <mxGeometry relative="1" as="geometry" />
        </mxCell>
        <mxCell id="bQVyfLzydwQdl8sysjUC-22" value="IDtimes (FK)" style="text;html=1;align=center;verticalAlign=middle;resizable=0;points=[];autosize=1;strokeColor=none;fillColor=none;" vertex="1" parent="1">
          <mxGeometry x="520" y="390" width="90" height="30" as="geometry" />
        </mxCell>
        <mxCell id="bQVyfLzydwQdl8sysjUC-23" value="apelido" style="text;html=1;align=center;verticalAlign=middle;resizable=0;points=[];autosize=1;strokeColor=none;fillColor=none;" vertex="1" parent="1">
          <mxGeometry x="520" y="430" width="60" height="30" as="geometry" />
        </mxCell>
        <mxCell id="bQVyfLzydwQdl8sysjUC-24" value="idade" style="text;html=1;align=center;verticalAlign=middle;resizable=0;points=[];autosize=1;strokeColor=none;fillColor=none;" vertex="1" parent="1">
          <mxGeometry x="520" y="470" width="50" height="30" as="geometry" />
        </mxCell>
        <mxCell id="bQVyfLzydwQdl8sysjUC-25" value="numeroCamisa" style="text;html=1;align=center;verticalAlign=middle;resizable=0;points=[];autosize=1;strokeColor=none;fillColor=none;" vertex="1" parent="1">
          <mxGeometry x="520" y="510" width="100" height="30" as="geometry" />
        </mxCell>
        <mxCell id="bQVyfLzydwQdl8sysjUC-26" style="edgeStyle=orthogonalEdgeStyle;rounded=0;orthogonalLoop=1;jettySize=auto;html=1;entryX=0.004;entryY=0.451;entryDx=0;entryDy=0;entryPerimeter=0;" edge="1" parent="1" source="bQVyfLzydwQdl8sysjUC-10" target="bQVyfLzydwQdl8sysjUC-22">
          <mxGeometry relative="1" as="geometry" />
        </mxCell>
        <mxCell id="bQVyfLzydwQdl8sysjUC-27" style="edgeStyle=orthogonalEdgeStyle;rounded=0;orthogonalLoop=1;jettySize=auto;html=1;entryX=-0.005;entryY=0.428;entryDx=0;entryDy=0;entryPerimeter=0;" edge="1" parent="1" source="bQVyfLzydwQdl8sysjUC-10" target="bQVyfLzydwQdl8sysjUC-23">
          <mxGeometry relative="1" as="geometry" />
        </mxCell>
        <mxCell id="bQVyfLzydwQdl8sysjUC-28" style="edgeStyle=orthogonalEdgeStyle;rounded=0;orthogonalLoop=1;jettySize=auto;html=1;entryX=0.008;entryY=0.52;entryDx=0;entryDy=0;entryPerimeter=0;" edge="1" parent="1" source="bQVyfLzydwQdl8sysjUC-10" target="bQVyfLzydwQdl8sysjUC-24">
          <mxGeometry relative="1" as="geometry" />
        </mxCell>
        <mxCell id="bQVyfLzydwQdl8sysjUC-29" style="edgeStyle=orthogonalEdgeStyle;rounded=0;orthogonalLoop=1;jettySize=auto;html=1;entryX=0.004;entryY=0.52;entryDx=0;entryDy=0;entryPerimeter=0;" edge="1" parent="1" source="bQVyfLzydwQdl8sysjUC-10" target="bQVyfLzydwQdl8sysjUC-25">
          <mxGeometry relative="1" as="geometry" />
        </mxCell>
        <mxCell id="bQVyfLzydwQdl8sysjUC-57" style="edgeStyle=orthogonalEdgeStyle;rounded=0;orthogonalLoop=1;jettySize=auto;html=1;entryX=1;entryY=0.5;entryDx=0;entryDy=0;" edge="1" parent="1" source="bQVyfLzydwQdl8sysjUC-30" target="bQVyfLzydwQdl8sysjUC-35">
          <mxGeometry relative="1" as="geometry" />
        </mxCell>
        <mxCell id="bQVyfLzydwQdl8sysjUC-30" value="Endereço" style="whiteSpace=wrap;html=1;" vertex="1" parent="1">
          <mxGeometry x="800" y="200" width="120" height="41" as="geometry" />
        </mxCell>
        <mxCell id="bQVyfLzydwQdl8sysjUC-36" style="edgeStyle=orthogonalEdgeStyle;rounded=0;orthogonalLoop=1;jettySize=auto;html=1;entryX=1;entryY=0.5;entryDx=0;entryDy=0;" edge="1" parent="1" source="bQVyfLzydwQdl8sysjUC-35" target="bQVyfLzydwQdl8sysjUC-1">
          <mxGeometry relative="1" as="geometry" />
        </mxCell>
        <mxCell id="bQVyfLzydwQdl8sysjUC-35" value="Tecnicos" style="whiteSpace=wrap;html=1;" vertex="1" parent="1">
          <mxGeometry x="440" y="200" width="120" height="40" as="geometry" />
        </mxCell>
        <mxCell id="bQVyfLzydwQdl8sysjUC-37" value="ID&lt;span style=&quot;white-space: pre;&quot;&gt;&#x9;&lt;/span&gt;(PK)" style="text;html=1;align=center;verticalAlign=middle;resizable=0;points=[];autosize=1;strokeColor=none;fillColor=none;" vertex="1" parent="1">
          <mxGeometry x="520" y="90" width="70" height="30" as="geometry" />
        </mxCell>
        <mxCell id="bQVyfLzydwQdl8sysjUC-38" value="IDtimes&lt;span style=&quot;white-space: pre;&quot;&gt;&#x9;&lt;/span&gt;(FK)" style="text;html=1;align=center;verticalAlign=middle;resizable=0;points=[];autosize=1;strokeColor=none;fillColor=none;" vertex="1" parent="1">
          <mxGeometry x="520" y="48" width="100" height="30" as="geometry" />
        </mxCell>
        <mxCell id="bQVyfLzydwQdl8sysjUC-39" value="IDendereço (FK)" style="text;html=1;align=center;verticalAlign=middle;resizable=0;points=[];autosize=1;strokeColor=none;fillColor=none;" vertex="1" parent="1">
          <mxGeometry x="520" y="10" width="110" height="30" as="geometry" />
        </mxCell>
        <mxCell id="bQVyfLzydwQdl8sysjUC-40" value="nome" style="text;html=1;align=center;verticalAlign=middle;resizable=0;points=[];autosize=1;strokeColor=none;fillColor=none;" vertex="1" parent="1">
          <mxGeometry x="520" y="-32" width="50" height="30" as="geometry" />
        </mxCell>
        <mxCell id="bQVyfLzydwQdl8sysjUC-41" value="dataNascimento" style="text;html=1;align=center;verticalAlign=middle;resizable=0;points=[];autosize=1;strokeColor=none;fillColor=none;" vertex="1" parent="1">
          <mxGeometry x="520" y="-72" width="110" height="30" as="geometry" />
        </mxCell>
        <mxCell id="bQVyfLzydwQdl8sysjUC-42" value="numeroCref" style="text;html=1;align=center;verticalAlign=middle;resizable=0;points=[];autosize=1;strokeColor=none;fillColor=none;" vertex="1" parent="1">
          <mxGeometry x="520" y="-112" width="90" height="30" as="geometry" />
        </mxCell>
        <mxCell id="bQVyfLzydwQdl8sysjUC-43" style="edgeStyle=orthogonalEdgeStyle;rounded=0;orthogonalLoop=1;jettySize=auto;html=1;entryX=0.005;entryY=0.541;entryDx=0;entryDy=0;entryPerimeter=0;" edge="1" parent="1" source="bQVyfLzydwQdl8sysjUC-35" target="bQVyfLzydwQdl8sysjUC-37">
          <mxGeometry relative="1" as="geometry" />
        </mxCell>
        <mxCell id="bQVyfLzydwQdl8sysjUC-44" style="edgeStyle=orthogonalEdgeStyle;rounded=0;orthogonalLoop=1;jettySize=auto;html=1;entryX=-0.003;entryY=0.401;entryDx=0;entryDy=0;entryPerimeter=0;" edge="1" parent="1" source="bQVyfLzydwQdl8sysjUC-35" target="bQVyfLzydwQdl8sysjUC-38">
          <mxGeometry relative="1" as="geometry" />
        </mxCell>
        <mxCell id="bQVyfLzydwQdl8sysjUC-45" style="edgeStyle=orthogonalEdgeStyle;rounded=0;orthogonalLoop=1;jettySize=auto;html=1;entryX=0.003;entryY=0.38;entryDx=0;entryDy=0;entryPerimeter=0;" edge="1" parent="1" source="bQVyfLzydwQdl8sysjUC-35" target="bQVyfLzydwQdl8sysjUC-39">
          <mxGeometry relative="1" as="geometry" />
        </mxCell>
        <mxCell id="bQVyfLzydwQdl8sysjUC-46" style="edgeStyle=orthogonalEdgeStyle;rounded=0;orthogonalLoop=1;jettySize=auto;html=1;entryX=0.008;entryY=0.424;entryDx=0;entryDy=0;entryPerimeter=0;" edge="1" parent="1" source="bQVyfLzydwQdl8sysjUC-35" target="bQVyfLzydwQdl8sysjUC-40">
          <mxGeometry relative="1" as="geometry" />
        </mxCell>
        <mxCell id="bQVyfLzydwQdl8sysjUC-47" style="edgeStyle=orthogonalEdgeStyle;rounded=0;orthogonalLoop=1;jettySize=auto;html=1;entryX=0.003;entryY=0.539;entryDx=0;entryDy=0;entryPerimeter=0;" edge="1" parent="1" source="bQVyfLzydwQdl8sysjUC-35" target="bQVyfLzydwQdl8sysjUC-41">
          <mxGeometry relative="1" as="geometry" />
        </mxCell>
        <mxCell id="bQVyfLzydwQdl8sysjUC-48" style="edgeStyle=orthogonalEdgeStyle;rounded=0;orthogonalLoop=1;jettySize=auto;html=1;entryX=0.004;entryY=0.401;entryDx=0;entryDy=0;entryPerimeter=0;" edge="1" parent="1" source="bQVyfLzydwQdl8sysjUC-35" target="bQVyfLzydwQdl8sysjUC-42">
          <mxGeometry relative="1" as="geometry" />
        </mxCell>
        <mxCell id="bQVyfLzydwQdl8sysjUC-49" value="ID&lt;span style=&quot;white-space: pre;&quot;&gt;&#x9;&lt;/span&gt;(PK)" style="text;html=1;align=center;verticalAlign=middle;resizable=0;points=[];autosize=1;strokeColor=none;fillColor=none;" vertex="1" parent="1">
          <mxGeometry x="890" y="271" width="70" height="30" as="geometry" />
        </mxCell>
        <mxCell id="bQVyfLzydwQdl8sysjUC-50" value="cep" style="text;html=1;align=center;verticalAlign=middle;resizable=0;points=[];autosize=1;strokeColor=none;fillColor=none;" vertex="1" parent="1">
          <mxGeometry x="890" y="311" width="40" height="30" as="geometry" />
        </mxCell>
        <mxCell id="bQVyfLzydwQdl8sysjUC-51" value="numero" style="text;html=1;align=center;verticalAlign=middle;resizable=0;points=[];autosize=1;strokeColor=none;fillColor=none;" vertex="1" parent="1">
          <mxGeometry x="890" y="349" width="60" height="30" as="geometry" />
        </mxCell>
        <mxCell id="bQVyfLzydwQdl8sysjUC-52" value="complemento" style="text;html=1;align=center;verticalAlign=middle;resizable=0;points=[];autosize=1;strokeColor=none;fillColor=none;" vertex="1" parent="1">
          <mxGeometry x="890" y="389" width="100" height="30" as="geometry" />
        </mxCell>
        <mxCell id="bQVyfLzydwQdl8sysjUC-53" style="edgeStyle=orthogonalEdgeStyle;rounded=0;orthogonalLoop=1;jettySize=auto;html=1;entryX=-0.004;entryY=0.443;entryDx=0;entryDy=0;entryPerimeter=0;" edge="1" parent="1" source="bQVyfLzydwQdl8sysjUC-30" target="bQVyfLzydwQdl8sysjUC-49">
          <mxGeometry relative="1" as="geometry" />
        </mxCell>
        <mxCell id="bQVyfLzydwQdl8sysjUC-54" style="edgeStyle=orthogonalEdgeStyle;rounded=0;orthogonalLoop=1;jettySize=auto;html=1;entryX=-0.021;entryY=0.481;entryDx=0;entryDy=0;entryPerimeter=0;" edge="1" parent="1" source="bQVyfLzydwQdl8sysjUC-30" target="bQVyfLzydwQdl8sysjUC-50">
          <mxGeometry relative="1" as="geometry" />
        </mxCell>
        <mxCell id="bQVyfLzydwQdl8sysjUC-55" style="edgeStyle=orthogonalEdgeStyle;rounded=0;orthogonalLoop=1;jettySize=auto;html=1;entryX=-0.014;entryY=0.567;entryDx=0;entryDy=0;entryPerimeter=0;" edge="1" parent="1" source="bQVyfLzydwQdl8sysjUC-30" target="bQVyfLzydwQdl8sysjUC-51">
          <mxGeometry relative="1" as="geometry" />
        </mxCell>
        <mxCell id="bQVyfLzydwQdl8sysjUC-56" style="edgeStyle=orthogonalEdgeStyle;rounded=0;orthogonalLoop=1;jettySize=auto;html=1;entryX=-0.003;entryY=0.548;entryDx=0;entryDy=0;entryPerimeter=0;" edge="1" parent="1" source="bQVyfLzydwQdl8sysjUC-30" target="bQVyfLzydwQdl8sysjUC-52">
          <mxGeometry relative="1" as="geometry" />
        </mxCell>
        <mxCell id="bQVyfLzydwQdl8sysjUC-67" style="edgeStyle=orthogonalEdgeStyle;rounded=0;orthogonalLoop=1;jettySize=auto;html=1;entryX=0;entryY=0.5;entryDx=0;entryDy=0;" edge="1" parent="1" source="bQVyfLzydwQdl8sysjUC-58" target="bQVyfLzydwQdl8sysjUC-65">
          <mxGeometry relative="1" as="geometry" />
        </mxCell>
        <mxCell id="bQVyfLzydwQdl8sysjUC-58" value="Jogos" style="whiteSpace=wrap;html=1;" vertex="1" parent="1">
          <mxGeometry x="-400" y="240" width="120" height="40" as="geometry" />
        </mxCell>
        <mxCell id="bQVyfLzydwQdl8sysjUC-59" value="ID&lt;span style=&quot;white-space: pre;&quot;&gt;&#x9;&lt;/span&gt;(PK)" style="text;html=1;align=center;verticalAlign=middle;resizable=0;points=[];autosize=1;strokeColor=none;fillColor=none;" vertex="1" parent="1">
          <mxGeometry x="-320" y="330" width="70" height="30" as="geometry" />
        </mxCell>
        <mxCell id="bQVyfLzydwQdl8sysjUC-60" value="estadio" style="text;html=1;align=center;verticalAlign=middle;resizable=0;points=[];autosize=1;strokeColor=none;fillColor=none;" vertex="1" parent="1">
          <mxGeometry x="-320" y="370" width="60" height="30" as="geometry" />
        </mxCell>
        <mxCell id="bQVyfLzydwQdl8sysjUC-61" value="data" style="text;html=1;align=center;verticalAlign=middle;resizable=0;points=[];autosize=1;strokeColor=none;fillColor=none;" vertex="1" parent="1">
          <mxGeometry x="-320" y="410" width="50" height="30" as="geometry" />
        </mxCell>
        <mxCell id="bQVyfLzydwQdl8sysjUC-62" style="edgeStyle=orthogonalEdgeStyle;rounded=0;orthogonalLoop=1;jettySize=auto;html=1;entryX=0.014;entryY=0.567;entryDx=0;entryDy=0;entryPerimeter=0;" edge="1" parent="1" source="bQVyfLzydwQdl8sysjUC-58" target="bQVyfLzydwQdl8sysjUC-59">
          <mxGeometry relative="1" as="geometry" />
        </mxCell>
        <mxCell id="bQVyfLzydwQdl8sysjUC-63" style="edgeStyle=orthogonalEdgeStyle;rounded=0;orthogonalLoop=1;jettySize=auto;html=1;entryX=0;entryY=0.567;entryDx=0;entryDy=0;entryPerimeter=0;" edge="1" parent="1" source="bQVyfLzydwQdl8sysjUC-58" target="bQVyfLzydwQdl8sysjUC-60">
          <mxGeometry relative="1" as="geometry" />
        </mxCell>
        <mxCell id="bQVyfLzydwQdl8sysjUC-64" style="edgeStyle=orthogonalEdgeStyle;rounded=0;orthogonalLoop=1;jettySize=auto;html=1;entryX=0;entryY=0.433;entryDx=0;entryDy=0;entryPerimeter=0;" edge="1" parent="1" source="bQVyfLzydwQdl8sysjUC-58" target="bQVyfLzydwQdl8sysjUC-61">
          <mxGeometry relative="1" as="geometry" />
        </mxCell>
        <mxCell id="bQVyfLzydwQdl8sysjUC-69" value="" style="edgeStyle=orthogonalEdgeStyle;rounded=0;orthogonalLoop=1;jettySize=auto;html=1;" edge="1" parent="1" source="bQVyfLzydwQdl8sysjUC-65" target="bQVyfLzydwQdl8sysjUC-68">
          <mxGeometry relative="1" as="geometry" />
        </mxCell>
        <mxCell id="bQVyfLzydwQdl8sysjUC-65" value="" style="rhombus;whiteSpace=wrap;html=1;" vertex="1" parent="1">
          <mxGeometry x="-180" y="220" width="80" height="80" as="geometry" />
        </mxCell>
        <mxCell id="bQVyfLzydwQdl8sysjUC-68" value="Time em Jogo" style="whiteSpace=wrap;html=1;" vertex="1" parent="1">
          <mxGeometry x="-200" y="80" width="120" height="40" as="geometry" />
        </mxCell>
        <mxCell id="bQVyfLzydwQdl8sysjUC-70" value="ID&amp;nbsp;&lt;span style=&quot;white-space: pre;&quot;&gt;&#x9;&lt;/span&gt;(PK)" style="text;html=1;align=center;verticalAlign=middle;resizable=0;points=[];autosize=1;strokeColor=none;fillColor=none;" vertex="1" parent="1">
          <mxGeometry x="-110" y="-30" width="70" height="30" as="geometry" />
        </mxCell>
        <mxCell id="bQVyfLzydwQdl8sysjUC-71" value="IDjogos (FK)" style="text;html=1;align=center;verticalAlign=middle;resizable=0;points=[];autosize=1;strokeColor=none;fillColor=none;" vertex="1" parent="1">
          <mxGeometry x="-110" y="-72" width="90" height="30" as="geometry" />
        </mxCell>
        <mxCell id="bQVyfLzydwQdl8sysjUC-72" value="timeCasa_id" style="text;html=1;align=center;verticalAlign=middle;resizable=0;points=[];autosize=1;strokeColor=none;fillColor=none;" vertex="1" parent="1">
          <mxGeometry x="-110" y="-112" width="90" height="30" as="geometry" />
        </mxCell>
        <mxCell id="bQVyfLzydwQdl8sysjUC-73" value="timeVisitante_id" style="text;html=1;align=center;verticalAlign=middle;resizable=0;points=[];autosize=1;strokeColor=none;fillColor=none;" vertex="1" parent="1">
          <mxGeometry x="-110" y="-152" width="110" height="30" as="geometry" />
        </mxCell>
        <mxCell id="bQVyfLzydwQdl8sysjUC-74" value="golsCasa" style="text;html=1;align=center;verticalAlign=middle;resizable=0;points=[];autosize=1;strokeColor=none;fillColor=none;" vertex="1" parent="1">
          <mxGeometry x="-110" y="-192" width="70" height="30" as="geometry" />
        </mxCell>
        <mxCell id="bQVyfLzydwQdl8sysjUC-75" value="golsVisitante" style="text;html=1;align=center;verticalAlign=middle;resizable=0;points=[];autosize=1;strokeColor=none;fillColor=none;" vertex="1" parent="1">
          <mxGeometry x="-110" y="-230" width="90" height="30" as="geometry" />
        </mxCell>
        <mxCell id="bQVyfLzydwQdl8sysjUC-76" style="edgeStyle=orthogonalEdgeStyle;rounded=0;orthogonalLoop=1;jettySize=auto;html=1;entryX=0;entryY=0.567;entryDx=0;entryDy=0;entryPerimeter=0;" edge="1" parent="1" source="bQVyfLzydwQdl8sysjUC-68" target="bQVyfLzydwQdl8sysjUC-70">
          <mxGeometry relative="1" as="geometry" />
        </mxCell>
        <mxCell id="bQVyfLzydwQdl8sysjUC-77" style="edgeStyle=orthogonalEdgeStyle;rounded=0;orthogonalLoop=1;jettySize=auto;html=1;entryX=-0.011;entryY=0.4;entryDx=0;entryDy=0;entryPerimeter=0;" edge="1" parent="1" source="bQVyfLzydwQdl8sysjUC-68" target="bQVyfLzydwQdl8sysjUC-71">
          <mxGeometry relative="1" as="geometry" />
        </mxCell>
        <mxCell id="bQVyfLzydwQdl8sysjUC-78" style="edgeStyle=orthogonalEdgeStyle;rounded=0;orthogonalLoop=1;jettySize=auto;html=1;entryX=-0.011;entryY=0.433;entryDx=0;entryDy=0;entryPerimeter=0;" edge="1" parent="1" source="bQVyfLzydwQdl8sysjUC-68" target="bQVyfLzydwQdl8sysjUC-72">
          <mxGeometry relative="1" as="geometry" />
        </mxCell>
        <mxCell id="bQVyfLzydwQdl8sysjUC-79" style="edgeStyle=orthogonalEdgeStyle;rounded=0;orthogonalLoop=1;jettySize=auto;html=1;entryX=-0.009;entryY=0.4;entryDx=0;entryDy=0;entryPerimeter=0;" edge="1" parent="1" source="bQVyfLzydwQdl8sysjUC-68" target="bQVyfLzydwQdl8sysjUC-73">
          <mxGeometry relative="1" as="geometry" />
        </mxCell>
        <mxCell id="bQVyfLzydwQdl8sysjUC-80" style="edgeStyle=orthogonalEdgeStyle;rounded=0;orthogonalLoop=1;jettySize=auto;html=1;entryX=-0.014;entryY=0.433;entryDx=0;entryDy=0;entryPerimeter=0;" edge="1" parent="1" source="bQVyfLzydwQdl8sysjUC-68" target="bQVyfLzydwQdl8sysjUC-74">
          <mxGeometry relative="1" as="geometry" />
        </mxCell>
        <mxCell id="bQVyfLzydwQdl8sysjUC-81" style="edgeStyle=orthogonalEdgeStyle;rounded=0;orthogonalLoop=1;jettySize=auto;html=1;entryX=-0.011;entryY=0.367;entryDx=0;entryDy=0;entryPerimeter=0;" edge="1" parent="1" source="bQVyfLzydwQdl8sysjUC-68" target="bQVyfLzydwQdl8sysjUC-75">
          <mxGeometry relative="1" as="geometry" />
        </mxCell>
      </root>
    </mxGraphModel>
  </diagram>
</mxfile>
